Coordinates
version=1
nRows=8
nColumns=46
inDegrees=yes

Units are S.I. units (second, meters, Newtons, ...)
Angles are in degrees.

endheader
time	pelvis_tilt	pelvis_list	pelvis_rotation	pelvis_tx	pelvis_ty	pelvis_tz	bb_angle	bb_tx	bb_ty	bb_tz	hip_flexion_r	hip_adduction_r	hip_rotation_r	knee_angle_r	knee_angle_r_beta	ankle_angle_r	subtalar_angle_r	mtp_angle_r	crank_angle_r	hip_flexion_l	hip_adduction_l	hip_rotation_l	knee_angle_l	knee_angle_l_beta	ankle_angle_l	subtalar_angle_l	mtp_angle_l	crank_angle_l	lumbar_extension	lumbar_bending	lumbar_rotation	arm_flex_r	arm_add_r	arm_rot_r	elbow_flex_r	pro_sup_r	wrist_flex_r	wrist_dev_r	arm_flex_l	arm_add_l	arm_rot_l	elbow_flex_l	pro_sup_l	wrist_flex_l	wrist_dev_l
      0.00000000	     -7.70711998	     -2.37654271	     -1.32757842	      0.05365120	      1.15680657	     -0.24135348	      0.00000000	      0.50000000	      0.00000000	      0.25000000	     76.62510572	      1.56187713	      4.15680897	     87.45083054	      1.52630493	     -1.00691962	     -9.62822781	      0.00000000	      0.00000000	     40.46316342	     -6.37621831	      1.83976518	     67.53184207	      1.17865299	      6.76626197	     -8.36400593	      0.00000000	      0.00000000	    -57.90074540	      2.05116776	      2.57962193	     89.55677842	     -9.00941590	     49.90454533	     33.21758683	     25.42546958	      0.00000000	      0.00000000	     89.50785251	     -8.58656383	     50.36509250	     22.33838100	     24.36919621	      0.00000000	      0.00000000
      0.00500000	     -7.69607521	     -2.33376226	     -1.34371931	      0.05367390	      1.15685791	     -0.24133456	      0.00000000	      0.50000000	      0.00000000	      0.25000000	     76.60024097	      1.56164234	      4.20672713	     87.43697474	      1.52606310	     -0.96032772	     -9.55814619	      0.00000000	      0.00000000	     40.43128224	     -6.33993298	      1.81189208	     67.52198204	      1.17848090	      6.79097523	     -8.40111966	      0.00000000	      0.00000000	    -57.92944540	      2.02733784	      2.42946685	     89.56242172	     -8.64596147	     49.45998731	     32.62302095	     26.57519735	      0.00000000	      0.00000000	     89.48476258	     -8.55229748	     48.90823814	     22.22944948	     25.49614321	      0.00000000	      0.00000000
      0.01000000	     -7.72889102	     -2.36672589	     -1.34803306	      0.05368276	      1.15678029	     -0.24131065	      0.00000000	      0.50000000	      0.00000000	      0.25000000	     76.61978518	      1.57664943	      4.17069815	     87.41344218	      1.52565238	     -0.94359133	     -9.55316166	      0.00000000	      0.00000000	     40.48370421	     -6.37822740	      1.82997436	     67.56204016	      1.17918005	      6.82462746	     -8.36528984	      0.00000000	      0.00000000	    -57.88921145	      2.05689178	      2.38945797	     89.57112714	     -8.31770932	     49.11863354	     31.92808894	     27.76781571	      0.00000000	      0.00000000	     89.45828387	     -8.30974781	     47.14821831	     21.97376717	     26.27867984	      0.00000000	      0.00000000
      0.01500000	     -7.70556356	     -2.44018281	     -1.38322621	      0.05371344	      1.15672462	     -0.24129042	      0.00000000	      0.50000000	      0.00000000	      0.25000000	     76.56805892	      1.65092321	      4.15674636	     87.39884904	      1.52539768	     -0.82980105	     -9.45039837	      0.00000000	      0.00000000	     40.47034477	     -6.44828404	      1.87512102	     67.61539264	      1.18011123	      6.87309473	     -8.36611173	      0.00000000	      0.00000000	    -57.89264101	      2.14927350	      2.70842711	     89.57302352	     -9.03917957	     49.94761114	     32.58433438	     28.39047263	      0.00000000	      0.00000000	     89.48525820	     -8.24076395	     51.08337641	     21.58771117	     27.18460921	      0.00000000	      0.00000000
      0.02000000	     -7.84859640	     -3.02943480	     -1.58194254	      0.05391039	      1.15582136	     -0.23994806	      0.00000000	      0.50000000	      0.00000000	      0.25000000	     76.66076238	      2.29428740	      3.72416345	     87.25616786	      1.52290742	     -1.13180134	     -9.82153902	      0.00000000	      0.00000000	     40.78368737	     -6.83705087	      2.62674815	     67.77093532	      1.18282596	      6.89633447	     -5.44985223	      0.00000000	      0.00000000	    -57.84024626	      2.42595867	      3.36102594	     89.57826191	     -9.50916873	     50.23030183	     33.55336329	     28.61652905	      0.00000000	      0.00000000	     89.49641163	     -7.96237026	     51.43358793	     21.37523555	     27.23249112	      0.00000000	      0.00000000
      0.02500000	     -8.03052356	     -3.43147181	     -1.78450687	      0.05421445	      1.15465708	     -0.23783640	      0.00000000	      0.50000000	      0.00000000	      0.25000000	     76.91646243	      2.85106032	      3.71888679	     87.01621948	      1.51871953	     -1.54436585	     -9.39115508	      0.00000000	      0.00000000	     41.02964958	     -7.14386538	      3.18710083	     68.01438245	      1.18707491	      6.87429476	     -5.08995380	      0.00000000	      0.00000000	    -57.56921415	      2.37184806	      4.00679340	     89.55770166	    -10.07140175	     51.09360884	     33.95507072	     28.86457273	      0.00000000	      0.00000000	     89.51676979	     -7.03841117	     51.23502863	     20.03867328	     27.05324821	      0.00000000	      0.00000000
      0.03000000	     -7.64470422	     -2.38173337	     -1.44240511	      0.05385397	      1.15689381	     -0.24119809	      0.00000000	      0.50000000	      0.00000000	      0.25000000	     76.48042188	      1.67274154	      4.20638219	     87.33240719	      1.52423805	     -1.04858364	     -9.62242620	      0.00000000	      0.00000000	     40.35043874	     -6.45004109	      1.76843153	     67.62108214	      1.18021053	      6.99526279	     -8.40291081	      0.00000000	      0.00000000	    -57.89353999	      1.90209034	      3.00827746	     89.54710357	     -9.91582989	     50.76331132	     33.20706542	     28.74147740	      0.00000000	      0.00000000	     89.55160271	     -7.99553734	     50.93635222	     20.89546169	     27.18483853	      0.00000000	      0.00000000
      0.03500000	     -7.68373039	     -2.43070885	     -1.43631739	      0.05384862	      1.15685675	     -0.24124035	      0.00000000	      0.50000000	      0.00000000	      0.25000000	     76.50328621	      1.67579211	      4.15728574	     87.29471561	      1.52358021	     -1.01844644	     -9.52328136	      0.00000000	      0.00000000	     40.41529155	     -6.48826551	      1.81636587	     67.68115891	      1.18125906	      7.10670007	     -8.32109497	      0.00000000	      0.00000000	    -57.91203631	      1.96859193	      2.81371650	     89.55349345	     -9.38792395	     50.01051225	     32.62515734	     30.28547493	      0.00000000	      0.00000000	     89.50437662	     -8.32118056	     49.19977332	     21.50332839	     28.45345630	      0.00000000	      0.00000000
